name rise49.25peak52.1432fall72.8391.mot
datacolumns 19
datarows 55
range 18.749928 18.839923
endheader
time	ground_force1_vx	ground_force1_vy	ground_force1_vz	ground_force1_px	ground_force1_py	ground_force1_pz	ground_force2_vx	ground_force2_vy	ground_force2_vz	ground_force2_px	ground_force2_py	ground_force2_pz	ground_torque1_x	ground_torque1_y	ground_torque1_z	ground_torque2_x	ground_torque2_y	ground_torque2_z	
18.749928	0.000000	0.000000	0.000000	0.000000	0.000000	0.000000	50.549713	815.730350	-46.329681	0.333927	0.000000	-0.074753	0.000000	0.000000	0.000000	0.000000	-19.509083	0.000000	
18.751592	0.000000	0.000000	0.000000	0.000000	0.000000	0.000000	49.885502	814.219360	-46.299903	0.333160	0.000000	-0.074755	0.000000	0.000000	0.000000	0.000000	-19.551848	0.000000	
18.753258	0.000000	0.000000	0.000000	0.000000	0.000000	0.000000	49.221852	812.572151	-46.263877	0.332361	0.000000	-0.074760	0.000000	0.000000	0.000000	0.000000	-19.590968	0.000000	
18.754934	0.000000	0.000000	0.000000	0.000000	0.000000	0.000000	48.559263	810.795258	-46.221511	0.331528	0.000000	-0.074768	0.000000	0.000000	0.000000	0.000000	-19.626269	0.000000	
18.756608	0.000000	0.000000	0.000000	0.000000	0.000000	0.000000	47.898220	808.895408	-46.172740	0.330662	0.000000	-0.074778	0.000000	0.000000	0.000000	0.000000	-19.657591	0.000000	
18.758258	0.000000	0.000000	0.000000	0.000000	0.000000	0.000000	47.239187	806.879499	-46.117520	0.329761	0.000000	-0.074790	0.000000	0.000000	0.000000	0.000000	-19.684801	0.000000	
18.759928	0.000000	0.000000	0.000000	0.000000	0.000000	0.000000	46.582610	804.754576	-46.055831	0.328826	0.000000	-0.074804	0.000000	0.000000	0.000000	0.000000	-19.707782	0.000000	
18.761607	0.000000	0.000000	0.000000	0.000000	0.000000	0.000000	45.928916	802.527808	-45.987679	0.327855	0.000000	-0.074821	0.000000	0.000000	0.000000	0.000000	-19.726442	0.000000	
18.763260	0.000000	0.000000	0.000000	0.000000	0.000000	0.000000	45.278511	800.206470	-45.913094	0.326849	0.000000	-0.074840	0.000000	0.000000	0.000000	0.000000	-19.740711	0.000000	
18.764931	0.000000	0.000000	0.000000	0.000000	0.000000	0.000000	44.631784	797.797912	-45.832130	0.325807	0.000000	-0.074861	0.000000	0.000000	0.000000	0.000000	-19.750540	0.000000	
18.766609	0.000000	0.000000	0.000000	0.000000	0.000000	0.000000	43.989101	795.309546	-45.744867	0.324730	0.000000	-0.074884	0.000000	0.000000	0.000000	0.000000	-19.755904	0.000000	
18.768258	0.000000	0.000000	0.000000	0.000000	0.000000	0.000000	43.350809	792.748817	-45.651407	0.323618	0.000000	-0.074910	0.000000	0.000000	0.000000	0.000000	-19.756800	0.000000	
18.769924	0.000000	0.000000	0.000000	0.000000	0.000000	0.000000	42.717233	790.123184	-45.551879	0.322471	0.000000	-0.074937	0.000000	0.000000	0.000000	0.000000	-19.753247	0.000000	
18.771592	0.000000	0.000000	0.000000	0.000000	0.000000	0.000000	42.088678	787.440099	-45.446432	0.321289	0.000000	-0.074966	0.000000	0.000000	0.000000	0.000000	-19.745286	0.000000	
18.773256	0.000000	0.000000	0.000000	0.000000	0.000000	0.000000	41.465431	784.706983	-45.335238	0.320073	0.000000	-0.074997	0.000000	0.000000	0.000000	0.000000	-19.732979	0.000000	
18.774925	0.000000	0.000000	0.000000	0.000000	0.000000	0.000000	40.847754	781.931210	-45.218491	0.318824	0.000000	-0.075030	0.000000	0.000000	0.000000	0.000000	-19.716409	0.000000	
18.776606	0.000000	0.000000	0.000000	0.000000	0.000000	0.000000	40.235890	779.120084	-45.096405	0.317542	0.000000	-0.075064	0.000000	0.000000	0.000000	0.000000	-19.695678	0.000000	
18.778260	0.000000	0.000000	0.000000	0.000000	0.000000	0.000000	39.630064	776.280820	-44.969211	0.316229	0.000000	-0.075100	0.000000	0.000000	0.000000	0.000000	-19.670907	0.000000	
18.779931	0.000000	0.000000	0.000000	0.000000	0.000000	0.000000	39.030476	773.420526	-44.837158	0.314886	0.000000	-0.075137	0.000000	0.000000	0.000000	0.000000	-19.642236	0.000000	
18.781591	0.000000	0.000000	0.000000	0.000000	0.000000	0.000000	38.437310	770.546189	-44.700513	0.313513	0.000000	-0.075175	0.000000	0.000000	0.000000	0.000000	-19.609822	0.000000	
18.783263	0.000000	0.000000	0.000000	0.000000	0.000000	0.000000	37.850727	767.664649	-44.559555	0.312113	0.000000	-0.075215	0.000000	0.000000	0.000000	0.000000	-19.573834	0.000000	
18.784930	0.000000	0.000000	0.000000	0.000000	0.000000	0.000000	37.270870	764.782594	-44.414578	0.310687	0.000000	-0.075255	0.000000	0.000000	0.000000	0.000000	-19.534461	0.000000	
18.786608	0.000000	0.000000	0.000000	0.000000	0.000000	0.000000	36.697862	761.906537	-44.265884	0.309237	0.000000	-0.075296	0.000000	0.000000	0.000000	0.000000	-19.491899	0.000000	
18.788262	0.000000	0.000000	0.000000	0.000000	0.000000	0.000000	36.131807	759.042806	-44.113787	0.307764	0.000000	-0.075338	0.000000	0.000000	0.000000	0.000000	-19.446360	0.000000	
18.789926	0.000000	0.000000	0.000000	0.000000	0.000000	0.000000	35.572789	756.197528	-43.958608	0.306270	0.000000	-0.075380	0.000000	0.000000	0.000000	0.000000	-19.398064	0.000000	
18.791607	0.000000	0.000000	0.000000	0.000000	0.000000	0.000000	35.020877	753.376620	-43.800674	0.304759	0.000000	-0.075422	0.000000	0.000000	0.000000	0.000000	-19.347240	0.000000	
18.793261	0.000000	0.000000	0.000000	0.000000	0.000000	0.000000	34.476120	750.585775	-43.640317	0.303231	0.000000	-0.075464	0.000000	0.000000	0.000000	0.000000	-19.294124	0.000000	
18.794923	0.000000	0.000000	0.000000	0.000000	0.000000	0.000000	33.938550	747.830454	-43.477870	0.301689	0.000000	-0.075506	0.000000	0.000000	0.000000	0.000000	-19.238957	0.000000	
18.796589	0.000000	0.000000	0.000000	0.000000	0.000000	0.000000	33.408182	745.115876	-43.313668	0.300136	0.000000	-0.075548	0.000000	0.000000	0.000000	0.000000	-19.181986	0.000000	
18.798260	0.000000	0.000000	0.000000	0.000000	0.000000	0.000000	32.885016	742.447010	-43.148045	0.298574	0.000000	-0.075589	0.000000	0.000000	0.000000	0.000000	-19.123458	0.000000	
18.799926	0.000000	0.000000	0.000000	0.000000	0.000000	0.000000	32.369036	739.828568	-42.981333	0.297006	0.000000	-0.075630	0.000000	0.000000	0.000000	0.000000	-19.063623	0.000000	
18.801606	0.000000	0.000000	0.000000	0.000000	0.000000	0.000000	31.860210	737.264999	-42.813860	0.295435	0.000000	-0.075669	0.000000	0.000000	0.000000	0.000000	-19.002730	0.000000	
18.803259	0.000000	0.000000	0.000000	0.000000	0.000000	0.000000	31.358494	734.760485	-42.645950	0.293863	0.000000	-0.075708	0.000000	0.000000	0.000000	0.000000	-18.941025	0.000000	
18.804931	0.000000	0.000000	0.000000	0.000000	0.000000	0.000000	30.863827	732.318936	-42.477918	0.292293	0.000000	-0.075744	0.000000	0.000000	0.000000	0.000000	-18.878753	0.000000	
18.806606	0.000000	0.000000	0.000000	0.000000	0.000000	0.000000	30.376137	729.943987	-42.310074	0.290728	0.000000	-0.075780	0.000000	0.000000	0.000000	0.000000	-18.816153	0.000000	
18.808276	0.000000	0.000000	0.000000	0.000000	0.000000	0.000000	29.895340	727.638998	-42.142718	0.289172	0.000000	-0.075813	0.000000	0.000000	0.000000	0.000000	-18.753459	0.000000	
18.809923	0.000000	0.000000	0.000000	0.000000	0.000000	0.000000	29.421337	725.407051	-41.976140	0.287626	0.000000	-0.075844	0.000000	0.000000	0.000000	0.000000	-18.690898	0.000000	
18.811608	0.000000	0.000000	0.000000	0.000000	0.000000	0.000000	28.954019	723.250951	-41.810620	0.286093	0.000000	-0.075874	0.000000	0.000000	0.000000	0.000000	-18.628690	0.000000	
18.813256	0.000000	0.000000	0.000000	0.000000	0.000000	0.000000	28.493267	721.173227	-41.646426	0.284578	0.000000	-0.075900	0.000000	0.000000	0.000000	0.000000	-18.567047	0.000000	
18.814927	0.000000	0.000000	0.000000	0.000000	0.000000	0.000000	28.038950	719.176135	-41.483815	0.283081	0.000000	-0.075924	0.000000	0.000000	0.000000	0.000000	-18.506170	0.000000	
18.816589	0.000000	0.000000	0.000000	0.000000	0.000000	0.000000	27.590925	717.261657	-41.323028	0.281607	0.000000	-0.075945	0.000000	0.000000	0.000000	0.000000	-18.446250	0.000000	
18.818256	0.000000	0.000000	0.000000	0.000000	0.000000	0.000000	27.149043	715.431510	-41.164298	0.280157	0.000000	-0.075964	0.000000	0.000000	0.000000	0.000000	-18.387471	0.000000	
18.819923	0.000000	0.000000	0.000000	0.000000	0.000000	0.000000	26.713141	713.687146	-41.007839	0.278735	0.000000	-0.075979	0.000000	0.000000	0.000000	0.000000	-18.330001	0.000000	
18.821606	0.000000	0.000000	0.000000	0.000000	0.000000	0.000000	26.283050	712.029760	-40.853856	0.277342	0.000000	-0.075990	0.000000	0.000000	0.000000	0.000000	-18.273999	0.000000	
18.823263	0.000000	0.000000	0.000000	0.000000	0.000000	0.000000	25.858589	710.460291	-40.702536	0.275982	0.000000	-0.075998	0.000000	0.000000	0.000000	0.000000	-18.219615	0.000000	
18.824928	0.000000	0.000000	0.000000	0.000000	0.000000	0.000000	25.439571	708.979436	-40.554055	0.274656	0.000000	-0.076003	0.000000	0.000000	0.000000	0.000000	-18.166982	0.000000	
18.826608	0.000000	0.000000	0.000000	0.000000	0.000000	0.000000	25.025797	707.587652	-40.408574	0.273366	0.000000	-0.076003	0.000000	0.000000	0.000000	0.000000	-18.116225	0.000000	
18.828264	0.000000	0.000000	0.000000	0.000000	0.000000	0.000000	24.617063	706.285164	-40.266240	0.272114	0.000000	-0.076000	0.000000	0.000000	0.000000	0.000000	-18.067457	0.000000	
18.829931	0.000000	0.000000	0.000000	0.000000	0.000000	0.000000	24.213152	705.071974	-40.127186	0.270902	0.000000	-0.075993	0.000000	0.000000	0.000000	0.000000	-18.020778	0.000000	
18.831595	0.000000	0.000000	0.000000	0.000000	0.000000	0.000000	23.813843	703.947871	-39.991533	0.269731	0.000000	-0.075982	0.000000	0.000000	0.000000	0.000000	-17.976279	0.000000	
18.833259	0.000000	0.000000	0.000000	0.000000	0.000000	0.000000	23.418904	702.912437	-39.859388	0.268603	0.000000	-0.075966	0.000000	0.000000	0.000000	0.000000	-17.934038	0.000000	
18.834931	0.000000	0.000000	0.000000	0.000000	0.000000	0.000000	23.028095	701.965060	-39.730846	0.267519	0.000000	-0.075947	0.000000	0.000000	0.000000	0.000000	-17.894123	0.000000	
18.836591	0.000000	0.000000	0.000000	0.000000	0.000000	0.000000	22.641168	701.104942	-39.605988	0.266479	0.000000	-0.075923	0.000000	0.000000	0.000000	0.000000	-17.856594	0.000000	
18.838261	0.000000	0.000000	0.000000	0.000000	0.000000	0.000000	22.257867	700.331108	-39.484887	0.265484	0.000000	-0.075895	0.000000	0.000000	0.000000	0.000000	-17.821498	0.000000	
18.839923	0.000000	0.000000	0.000000	0.000000	0.000000	0.000000	21.877929	699.642419	-39.367601	0.264535	0.000000	-0.075863	0.000000	0.000000	0.000000	0.000000	-17.788876	0.000000	
